<svg width="695" height="455" viewBox="0 0 695 455" fill="none" xmlns="http://www.w3.org/2000/svg">
<g clip-path="url(#clip0_17_207)">
<path d="M890 0H279C272.373 0 267 5.37258 267 12V422C267 428.627 272.373 434 279 434H890C896.627 434 902 428.627 902 422V12C902 5.37258 896.627 0 890 0Z" fill="#191D36"/>
<path d="M889 3H280C274.477 3 270 7.47715 270 13V421C270 426.523 274.477 431 280 431H889C894.523 431 899 426.523 899 421V13C899 7.47715 894.523 3 889 3Z" fill="#0B0E21"/>
<path d="M881 16H288C285.239 16 283 18.2386 283 21V413C283 415.761 285.239 418 288 418H881C883.761 418 886 415.761 886 413V21C886 18.2386 883.761 16 881 16Z" fill="#16171B"/>
<mask id="mask0_17_207" style="mask-type:alpha" maskUnits="userSpaceOnUse" x="286" y="18" width="598" height="397">
<path d="M880.554 18H289C287.343 18 286 19.3431 286 21V411.861C286 413.518 287.343 414.861 289 414.861H880.554C882.211 414.861 883.554 413.518 883.554 411.861V21C883.554 19.3431 882.211 18 880.554 18Z" fill="white"/>
</mask>
<g mask="url(#mask0_17_207)">
<path d="M880.554 18H289C287.343 18 286 19.3431 286 21V411.861C286 413.518 287.343 414.861 289 414.861H880.554C882.211 414.861 883.554 413.518 883.554 411.861V21C883.554 19.3431 882.211 18 880.554 18Z" fill="#EBEDF4"/>
<path d="M741 107H420C417.239 107 415 109.239 415 112V149C415 151.761 417.239 154 420 154H741C743.761 154 746 151.761 746 149V112C746 109.239 743.761 107 741 107Z" fill="white"/>
<path d="M481.5 125H433.5C432.119 125 431 126.119 431 127.5C431 128.881 432.119 130 433.5 130H481.5C482.881 130 484 128.881 484 127.5C484 126.119 482.881 125 481.5 125Z" fill="#B1B4C7"/>
<path d="M462.5 134H433.5C432.119 134 431 135.119 431 136.5C431 137.881 432.119 139 433.5 139H462.5C463.881 139 465 137.881 465 136.5C465 135.119 463.881 134 462.5 134Z" fill="#D4D7E6"/>
<path d="M556.5 125H508.5C507.119 125 506 126.119 506 127.5C506 128.881 507.119 130 508.5 130H556.5C557.881 130 559 128.881 559 127.5C559 126.119 557.881 125 556.5 125Z" fill="#B1B4C7"/>
<path d="M537.5 134H508.5C507.119 134 506 135.119 506 136.5C506 137.881 507.119 139 508.5 139H537.5C538.881 139 540 137.881 540 136.5C540 135.119 538.881 134 537.5 134Z" fill="#D4D7E6"/>
<path d="M658.5 125H610.5C609.119 125 608 126.119 608 127.5C608 128.881 609.119 130 610.5 130H658.5C659.881 130 661 128.881 661 127.5C661 126.119 659.881 125 658.5 125Z" fill="#B1B4C7"/>
<path d="M639.5 134H610.5C609.119 134 608 135.119 608 136.5C608 137.881 609.119 139 610.5 139H639.5C640.881 139 642 137.881 642 136.5C642 135.119 640.881 134 639.5 134Z" fill="#D4D7E6"/>
<path d="M731.5 125H683.5C682.119 125 681 126.119 681 127.5C681 128.881 682.119 130 683.5 130H731.5C732.881 130 734 128.881 734 127.5C734 126.119 732.881 125 731.5 125Z" fill="#B1B4C7"/>
<path d="M712.5 134H683.5C682.119 134 681 135.119 681 136.5C681 137.881 682.119 139 683.5 139H712.5C713.881 139 715 137.881 715 136.5C715 135.119 713.881 134 712.5 134Z" fill="#D4D7E6"/>
<mask id="mask1_17_207" style="mask-type:alpha" maskUnits="userSpaceOnUse" x="415" y="168" width="331" height="184">
<path d="M741 168H420C417.239 168 415 170.239 415 173V347C415 349.761 417.239 352 420 352H741C743.761 352 746 349.761 746 347V173C746 170.239 743.761 168 741 168Z" fill="white"/>
</mask>
<g mask="url(#mask1_17_207)">
<path d="M741 168H420C417.239 168 415 170.239 415 173V347C415 349.761 417.239 352 420 352H741C743.761 352 746 349.761 746 347V173C746 170.239 743.761 168 741 168Z" fill="white"/>
<path d="M571 200H411C404.373 200 399 205.373 399 212C399 218.627 404.373 224 411 224H571C577.627 224 583 218.627 583 212C583 205.373 577.627 200 571 200Z" fill="#FF5E5E"/>
<path d="M571 296H411C404.373 296 399 301.373 399 308C399 314.627 404.373 320 411 320H571C577.627 320 583 314.627 583 308C583 301.373 577.627 296 571 296Z" fill="#FF5E5E"/>
<path d="M615 212C615 205.373 609.627 200 603 200C596.373 200 591 205.373 591 212C591 218.627 596.373 224 603 224C609.627 224 615 218.627 615 212Z" fill="#BC4747"/>
<path d="M667 232H603C596.373 232 591 237.373 591 244C591 250.627 596.373 256 603 256H667C673.627 256 679 250.627 679 244C679 237.373 673.627 232 667 232Z" fill="#FF5E5E"/>
<path d="M571 231.547H481C474.373 231.547 469 236.92 469 243.547C469 250.175 474.373 255.547 481 255.547H571C577.627 255.547 583 250.175 583 243.547C583 236.92 577.627 231.547 571 231.547Z" fill="#BC4747"/>
<path d="M667 264.53H641C634.373 264.53 629 269.903 629 276.53C629 283.157 634.373 288.53 641 288.53H667C673.627 288.53 679 283.157 679 276.53C679 269.903 673.627 264.53 667 264.53Z" fill="#FF5E5E"/>
<path d="M449 263.925H394C387.373 263.925 382 269.298 382 275.925C382 282.552 387.373 287.925 394 287.925H449C455.627 287.925 461 282.552 461 275.925C461 269.298 455.627 263.925 449 263.925Z" fill="#FF5E5E"/>
<path d="M711 244C711 237.373 705.627 232 699 232C692.373 232 687 237.373 687 244C687 250.627 692.373 256 699 256C705.627 256 711 250.627 711 244Z" fill="#BC4747"/>
</g>
<path d="M489.5 32H417.5C416.119 32 415 33.1193 415 34.5C415 35.8807 416.119 37 417.5 37H489.5C490.881 37 492 35.8807 492 34.5C492 33.1193 490.881 32 489.5 32Z" fill="#CBCEDC"/>
<path d="M471.5 58H424.5C419.253 58 415 62.2533 415 67.5C415 72.7467 419.253 77 424.5 77H471.5C476.747 77 481 72.7467 481 67.5C481 62.2533 476.747 58 471.5 58Z" fill="#8C90A3"/>
<path d="M512.5 58.2881H500.5C495.253 58.2881 491 62.5414 491 67.7881C491 73.0348 495.253 77.2881 500.5 77.2881H512.5C517.747 77.2881 522 73.0348 522 67.7881C522 62.5414 517.747 58.2881 512.5 58.2881Z" fill="#8C90A3"/>
<path d="M551.5 58H539.5C534.253 58 530 62.2533 530 67.5C530 72.7467 534.253 77 539.5 77H551.5C556.747 77 561 72.7467 561 67.5C561 62.2533 556.747 58 551.5 58Z" fill="#8C90A3"/>
<path fill-rule="evenodd" clip-rule="evenodd" d="M286 18H393V415H286V18Z" fill="#353740"/>
<path d="M375.5 98H303.5C302.119 98 301 99.1193 301 100.5C301 101.881 302.119 103 303.5 103H375.5C376.881 103 378 101.881 378 100.5C378 99.1193 376.881 98 375.5 98Z" fill="#4A4E5D"/>
<path d="M375.5 117H303.5C302.119 117 301 118.119 301 119.5C301 120.881 302.119 122 303.5 122H375.5C376.881 122 378 120.881 378 119.5C378 118.119 376.881 117 375.5 117Z" fill="#4A4E5D"/>
<path d="M375.5 136H303.5C302.119 136 301 137.119 301 138.5C301 139.881 302.119 141 303.5 141H375.5C376.881 141 378 139.881 378 138.5C378 137.119 376.881 136 375.5 136Z" fill="#4A4E5D"/>
<path d="M375.5 155H303.5C302.119 155 301 156.119 301 157.5C301 158.881 302.119 160 303.5 160H375.5C376.881 160 378 158.881 378 157.5C378 156.119 376.881 155 375.5 155Z" fill="#4A4E5D"/>
<path d="M375.5 174H303.5C302.119 174 301 175.119 301 176.5C301 177.881 302.119 179 303.5 179H375.5C376.881 179 378 177.881 378 176.5C378 175.119 376.881 174 375.5 174Z" fill="#4A4E5D"/>
<path d="M375.5 396H303.5C302.119 396 301 397.119 301 398.5C301 399.881 302.119 401 303.5 401H375.5C376.881 401 378 399.881 378 398.5C378 397.119 376.881 396 375.5 396Z" fill="#4A4E5D"/>
<path d="M375.5 57H327.5C326.119 57 325 58.1193 325 59.5C325 60.8807 326.119 62 327.5 62H375.5C376.881 62 378 60.8807 378 59.5C378 58.1193 376.881 57 375.5 57Z" fill="#7B7F90"/>
<path d="M356.5 66H327.5C326.119 66 325 67.1193 325 68.5C325 69.8807 326.119 71 327.5 71H356.5C357.881 71 359 69.8807 359 68.5C359 67.1193 357.881 66 356.5 66Z" fill="#4A4E5D"/>
<path d="M310 73C314.971 73 319 68.9706 319 64C319 59.0294 314.971 55 310 55C305.029 55 301 59.0294 301 64C301 68.9706 305.029 73 310 73Z" fill="#FF5E5E"/>
<path d="M373.5 30H305.5C303.015 30 301 32.0147 301 34.5C301 36.9853 303.015 39 305.5 39H373.5C375.985 39 378 36.9853 378 34.5C378 32.0147 375.985 30 373.5 30Z" fill="#8C90A3"/>
</g>
<g opacity="0.098">
<path d="M586.64 8H575C573.895 8 573 8.89543 573 10C573 11.1046 573.895 12 575 12H586.64C587.745 12 588.64 11.1046 588.64 10C588.64 8.89543 587.745 8 586.64 8Z" fill="#4A5166"/>
<path d="M596 9.84C596 8.8238 595.176 8 594.16 8C593.144 8 592.32 8.8238 592.32 9.84V10.16C592.32 11.1762 593.144 12 594.16 12C595.176 12 596 11.1762 596 10.16V9.84Z" fill="#4A5166"/>
</g>
<mask id="mask2_17_207" style="mask-type:alpha" maskUnits="userSpaceOnUse" x="186" y="430" width="776" height="20">
<path d="M189 430H958.629C959.425 430 960.188 430.316 960.75 430.879C961.313 431.441 961.629 432.204 961.629 433V449.006H186V433C186 432.204 186.316 431.441 186.879 430.879C187.441 430.316 188.204 430 189 430V430Z" fill="white"/>
</mask>
<g mask="url(#mask2_17_207)">
<path d="M189 430H958.629C959.425 430 960.188 430.316 960.75 430.879C961.313 431.441 961.629 432.204 961.629 433V449.006H186V433C186 432.204 186.316 431.441 186.879 430.879C187.441 430.316 188.204 430 189 430V430Z" fill="#242942"/>
<path d="M627.159 383.436H520.47C514.947 383.436 510.47 387.913 510.47 393.436V431.404C510.47 436.927 514.947 441.404 520.47 441.404H627.159C632.682 441.404 637.159 436.927 637.159 431.404V393.436C637.159 387.913 632.682 383.436 627.159 383.436Z" fill="#2E334F"/>
</g>
<path d="M186 448H962C962 449.857 961.263 451.637 959.95 452.95C958.637 454.262 956.857 455 955 455H193C191.143 455 189.363 454.262 188.05 452.95C186.737 451.637 186 449.857 186 448V448Z" fill="#1A1C27"/>
<g filter="url(#filter0_d_17_207)">
<path d="M201 0.209961H58C51.3726 0.209961 46 5.58254 46 12.21V329.21C46 335.837 51.3726 341.21 58 341.21H201C207.627 341.21 213 335.837 213 329.21V12.21C213 5.58254 207.627 0.209961 201 0.209961Z" fill="black"/>
</g>
<path d="M201 0.209961H58C51.3726 0.209961 46 5.58254 46 12.21V329.21C46 335.837 51.3726 341.21 58 341.21H201C207.627 341.21 213 335.837 213 329.21V12.21C213 5.58254 207.627 0.209961 201 0.209961Z" fill="#242942"/>
<mask id="mask3_17_207" style="mask-type:alpha" maskUnits="userSpaceOnUse" x="52" y="6" width="155" height="330">
<path d="M198 6H61C56.0294 6 52 10.0294 52 15V327C52 331.971 56.0294 336 61 336H198C202.971 336 207 331.971 207 327V15C207 10.0294 202.971 6 198 6Z" fill="white"/>
</mask>
<g mask="url(#mask3_17_207)">
<path d="M198 6H61C56.0294 6 52 10.0294 52 15V327C52 331.971 56.0294 336 61 336H198C202.971 336 207 331.971 207 327V15C207 10.0294 202.971 6 198 6Z" fill="#EBEDF4"/>
<path fill-rule="evenodd" clip-rule="evenodd" d="M52 6H207V83H52V6Z" fill="#353740"/>
<mask id="mask4_17_207" style="mask-type:alpha" maskUnits="userSpaceOnUse" x="60" y="114" width="140" height="184">
<path d="M195 114H65C62.2386 114 60 116.239 60 119V293C60 295.761 62.2386 298 65 298H195C197.761 298 200 295.761 200 293V119C200 116.239 197.761 114 195 114Z" fill="white"/>
</mask>
<g mask="url(#mask4_17_207)">
<path d="M195 114H65C62.2386 114 60 116.239 60 119V293C60 295.761 62.2386 298 65 298H195C197.761 298 200 295.761 200 293V119C200 116.239 197.761 114 195 114Z" fill="white"/>
<path d="M164 146H324C330.627 146 336 151.373 336 158C336 164.627 330.627 170 324 170H164C157.373 170 152 164.627 152 158C152 151.373 157.373 146 164 146Z" fill="#FF5E5E"/>
<path d="M164 242H324C330.627 242 336 247.373 336 254C336 260.627 330.627 266 324 266H164C157.373 266 152 260.627 152 254C152 247.373 157.373 242 164 242Z" fill="#FF5E5E"/>
<path d="M120 158C120 151.373 125.373 146 132 146C138.627 146 144 151.373 144 158C144 164.627 138.627 170 132 170C125.373 170 120 164.627 120 158Z" fill="#BC4747"/>
<path d="M68 178H132C138.627 178 144 183.373 144 190C144 196.627 138.627 202 132 202H68C61.3726 202 56 196.627 56 190C56 183.373 61.3726 178 68 178Z" fill="#FF5E5E"/>
<path d="M164 177.547H254C260.627 177.547 266 182.92 266 189.547C266 196.175 260.627 201.547 254 201.547H164C157.373 201.547 152 196.175 152 189.547C152 182.92 157.373 177.547 164 177.547Z" fill="#BC4747"/>
<path d="M68 210.53H94C100.627 210.53 106 215.903 106 222.53C106 229.157 100.627 234.53 94 234.53H68C61.3726 234.53 56 229.157 56 222.53C56 215.903 61.3726 210.53 68 210.53Z" fill="#FF5E5E"/>
</g>
<path d="M195 58H65C62.2386 58 60 60.2386 60 63V100C60 102.761 62.2386 105 65 105H195C197.761 105 200 102.761 200 100V63C200 60.2386 197.761 58 195 58Z" fill="white"/>
<path d="M163.5 27H91.5C90.1193 27 89 28.1193 89 29.5C89 30.8807 90.1193 32 91.5 32H163.5C164.881 32 166 30.8807 166 29.5C166 28.1193 164.881 27 163.5 27Z" fill="#4A4E5D"/>
</g>
<path d="M175.5 76H78.5C77.1193 76 76 77.1193 76 78.5C76 79.8807 77.1193 81 78.5 81H175.5C176.881 81 178 79.8807 178 78.5C178 77.1193 176.881 76 175.5 76Z" fill="#B1B4C7"/>
<path d="M138.5 85H78.5C77.1193 85 76 86.1193 76 87.5C76 88.8807 77.1193 90 78.5 90H138.5C139.881 90 141 88.8807 141 87.5C141 86.1193 139.881 85 138.5 85Z" fill="#D4D7E6"/>
</g>
<defs>
<filter id="filter0_d_17_207" x="2" y="-9.79004" width="267" height="441" filterUnits="userSpaceOnUse" color-interpolation-filters="sRGB">
<feFlood flood-opacity="0" result="BackgroundImageFix"/>
<feColorMatrix in="SourceAlpha" type="matrix" values="0 0 0 0 0 0 0 0 0 0 0 0 0 0 0 0 0 0 127 0" result="hardAlpha"/>
<feOffset dx="6" dy="40"/>
<feGaussianBlur stdDeviation="25"/>
<feColorMatrix type="matrix" values="0 0 0 0 0.24346 0 0 0 0 0.279313 0 0 0 0 0.375399 0 0 0 0.255293 0"/>
<feBlend mode="normal" in2="BackgroundImageFix" result="effect1_dropShadow_17_207"/>
<feBlend mode="normal" in="SourceGraphic" in2="effect1_dropShadow_17_207" result="shape"/>
</filter>
<clipPath id="clip0_17_207">
<rect width="695" height="455" fill="white"/>
</clipPath>
</defs>
</svg>
