<svg width="960" height="465" viewBox="0 0 960 465" fill="none" xmlns="http://www.w3.org/2000/svg">
<path d="M888 10H277C270.373 10 265 15.3726 265 22V432C265 438.627 270.373 444 277 444H888C894.627 444 900 438.627 900 432V22C900 15.3726 894.627 10 888 10Z" fill="#191D36"/>
<path d="M887 13H278C272.477 13 268 17.4772 268 23V431C268 436.523 272.477 441 278 441H887C892.523 441 897 436.523 897 431V23C897 17.4772 892.523 13 887 13Z" fill="#0B0E21"/>
<path d="M879 26H286C283.239 26 281 28.2386 281 31V423C281 425.761 283.239 428 286 428H879C881.761 428 884 425.761 884 423V31C884 28.2386 881.761 26 879 26Z" fill="#16171B"/>
<mask id="mask0_17_206" style="mask-type:alpha" maskUnits="userSpaceOnUse" x="284" y="28" width="598" height="397">
<path d="M878.554 28H287C285.343 28 284 29.3431 284 31V421.861C284 423.518 285.343 424.861 287 424.861H878.554C880.211 424.861 881.554 423.518 881.554 421.861V31C881.554 29.3431 880.211 28 878.554 28Z" fill="white"/>
</mask>
<g mask="url(#mask0_17_206)">
<path d="M878.554 28H287C285.343 28 284 29.3431 284 31V421.861C284 423.518 285.343 424.861 287 424.861H878.554C880.211 424.861 881.554 423.518 881.554 421.861V31C881.554 29.3431 880.211 28 878.554 28Z" fill="#EBEDF4"/>
<path d="M739 117H418C415.239 117 413 119.239 413 122V159C413 161.761 415.239 164 418 164H739C741.761 164 744 161.761 744 159V122C744 119.239 741.761 117 739 117Z" fill="white"/>
<path d="M479.5 135H431.5C430.119 135 429 136.119 429 137.5C429 138.881 430.119 140 431.5 140H479.5C480.881 140 482 138.881 482 137.5C482 136.119 480.881 135 479.5 135Z" fill="#B1B4C7"/>
<path d="M460.5 144H431.5C430.119 144 429 145.119 429 146.5C429 147.881 430.119 149 431.5 149H460.5C461.881 149 463 147.881 463 146.5C463 145.119 461.881 144 460.5 144Z" fill="#D4D7E6"/>
<path d="M554.5 135H506.5C505.119 135 504 136.119 504 137.5C504 138.881 505.119 140 506.5 140H554.5C555.881 140 557 138.881 557 137.5C557 136.119 555.881 135 554.5 135Z" fill="#B1B4C7"/>
<path d="M535.5 144H506.5C505.119 144 504 145.119 504 146.5C504 147.881 505.119 149 506.5 149H535.5C536.881 149 538 147.881 538 146.5C538 145.119 536.881 144 535.5 144Z" fill="#D4D7E6"/>
<path d="M656.5 135H608.5C607.119 135 606 136.119 606 137.5C606 138.881 607.119 140 608.5 140H656.5C657.881 140 659 138.881 659 137.5C659 136.119 657.881 135 656.5 135Z" fill="#B1B4C7"/>
<path d="M637.5 144H608.5C607.119 144 606 145.119 606 146.5C606 147.881 607.119 149 608.5 149H637.5C638.881 149 640 147.881 640 146.5C640 145.119 638.881 144 637.5 144Z" fill="#D4D7E6"/>
<path d="M729.5 135H681.5C680.119 135 679 136.119 679 137.5C679 138.881 680.119 140 681.5 140H729.5C730.881 140 732 138.881 732 137.5C732 136.119 730.881 135 729.5 135Z" fill="#B1B4C7"/>
<path d="M710.5 144H681.5C680.119 144 679 145.119 679 146.5C679 147.881 680.119 149 681.5 149H710.5C711.881 149 713 147.881 713 146.5C713 145.119 711.881 144 710.5 144Z" fill="#D4D7E6"/>
<mask id="mask1_17_206" style="mask-type:alpha" maskUnits="userSpaceOnUse" x="413" y="178" width="331" height="184">
<path d="M739 178H418C415.239 178 413 180.239 413 183V357C413 359.761 415.239 362 418 362H739C741.761 362 744 359.761 744 357V183C744 180.239 741.761 178 739 178Z" fill="white"/>
</mask>
<g mask="url(#mask1_17_206)">
<path d="M739 178H418C415.239 178 413 180.239 413 183V357C413 359.761 415.239 362 418 362H739C741.761 362 744 359.761 744 357V183C744 180.239 741.761 178 739 178Z" fill="white"/>
<path d="M569 210H409C402.373 210 397 215.373 397 222C397 228.627 402.373 234 409 234H569C575.627 234 581 228.627 581 222C581 215.373 575.627 210 569 210Z" fill="#FF5E5E"/>
<path d="M569 306H409C402.373 306 397 311.373 397 318C397 324.627 402.373 330 409 330H569C575.627 330 581 324.627 581 318C581 311.373 575.627 306 569 306Z" fill="#FF5E5E"/>
<path d="M613 222C613 215.373 607.627 210 601 210C594.373 210 589 215.373 589 222C589 228.627 594.373 234 601 234C607.627 234 613 228.627 613 222Z" fill="#BC4747"/>
<path d="M665 242H601C594.373 242 589 247.373 589 254C589 260.627 594.373 266 601 266H665C671.627 266 677 260.627 677 254C677 247.373 671.627 242 665 242Z" fill="#FF5E5E"/>
<path d="M569 241.547H479C472.373 241.547 467 246.92 467 253.547C467 260.175 472.373 265.547 479 265.547H569C575.627 265.547 581 260.175 581 253.547C581 246.92 575.627 241.547 569 241.547Z" fill="#BC4747"/>
<path d="M665 274.53H639C632.373 274.53 627 279.903 627 286.53C627 293.157 632.373 298.53 639 298.53H665C671.627 298.53 677 293.157 677 286.53C677 279.903 671.627 274.53 665 274.53Z" fill="#FF5E5E"/>
<path d="M447 273.925H392C385.373 273.925 380 279.298 380 285.925C380 292.552 385.373 297.925 392 297.925H447C453.627 297.925 459 292.552 459 285.925C459 279.298 453.627 273.925 447 273.925Z" fill="#FF5E5E"/>
<path d="M709 254C709 247.373 703.627 242 697 242C690.373 242 685 247.373 685 254C685 260.627 690.373 266 697 266C703.627 266 709 260.627 709 254Z" fill="#BC4747"/>
</g>
<path d="M487.5 42H415.5C414.119 42 413 43.1193 413 44.5C413 45.8807 414.119 47 415.5 47H487.5C488.881 47 490 45.8807 490 44.5C490 43.1193 488.881 42 487.5 42Z" fill="#CBCEDC"/>
<path d="M469.5 68H422.5C417.253 68 413 72.2533 413 77.5C413 82.7467 417.253 87 422.5 87H469.5C474.747 87 479 82.7467 479 77.5C479 72.2533 474.747 68 469.5 68Z" fill="#8C90A3"/>
<path d="M510.5 68.2881H498.5C493.253 68.2881 489 72.5414 489 77.7881C489 83.0348 493.253 87.2881 498.5 87.2881H510.5C515.747 87.2881 520 83.0348 520 77.7881C520 72.5414 515.747 68.2881 510.5 68.2881Z" fill="#8C90A3"/>
<path d="M549.5 68H537.5C532.253 68 528 72.2533 528 77.5C528 82.7467 532.253 87 537.5 87H549.5C554.747 87 559 82.7467 559 77.5C559 72.2533 554.747 68 549.5 68Z" fill="#8C90A3"/>
<path fill-rule="evenodd" clip-rule="evenodd" d="M284 28H391V425H284V28Z" fill="#353740"/>
<path d="M373.5 108H301.5C300.119 108 299 109.119 299 110.5C299 111.881 300.119 113 301.5 113H373.5C374.881 113 376 111.881 376 110.5C376 109.119 374.881 108 373.5 108Z" fill="#4A4E5D"/>
<path d="M373.5 127H301.5C300.119 127 299 128.119 299 129.5C299 130.881 300.119 132 301.5 132H373.5C374.881 132 376 130.881 376 129.5C376 128.119 374.881 127 373.5 127Z" fill="#4A4E5D"/>
<path d="M373.5 146H301.5C300.119 146 299 147.119 299 148.5C299 149.881 300.119 151 301.5 151H373.5C374.881 151 376 149.881 376 148.5C376 147.119 374.881 146 373.5 146Z" fill="#4A4E5D"/>
<path d="M373.5 165H301.5C300.119 165 299 166.119 299 167.5C299 168.881 300.119 170 301.5 170H373.5C374.881 170 376 168.881 376 167.5C376 166.119 374.881 165 373.5 165Z" fill="#4A4E5D"/>
<path d="M373.5 184H301.5C300.119 184 299 185.119 299 186.5C299 187.881 300.119 189 301.5 189H373.5C374.881 189 376 187.881 376 186.5C376 185.119 374.881 184 373.5 184Z" fill="#4A4E5D"/>
<path d="M373.5 406H301.5C300.119 406 299 407.119 299 408.5C299 409.881 300.119 411 301.5 411H373.5C374.881 411 376 409.881 376 408.5C376 407.119 374.881 406 373.5 406Z" fill="#4A4E5D"/>
<path d="M373.5 67H325.5C324.119 67 323 68.1193 323 69.5C323 70.8807 324.119 72 325.5 72H373.5C374.881 72 376 70.8807 376 69.5C376 68.1193 374.881 67 373.5 67Z" fill="#7B7F90"/>
<path d="M354.5 76H325.5C324.119 76 323 77.1193 323 78.5C323 79.8807 324.119 81 325.5 81H354.5C355.881 81 357 79.8807 357 78.5C357 77.1193 355.881 76 354.5 76Z" fill="#4A4E5D"/>
<path d="M308 83C312.971 83 317 78.9706 317 74C317 69.0294 312.971 65 308 65C303.029 65 299 69.0294 299 74C299 78.9706 303.029 83 308 83Z" fill="#FF5E5E"/>
<path d="M371.5 40H303.5C301.015 40 299 42.0147 299 44.5C299 46.9853 301.015 49 303.5 49H371.5C373.985 49 376 46.9853 376 44.5C376 42.0147 373.985 40 371.5 40Z" fill="#8C90A3"/>
</g>
<g opacity="0.098">
<path d="M584.64 18H573C571.895 18 571 18.8954 571 20C571 21.1046 571.895 22 573 22H584.64C585.745 22 586.64 21.1046 586.64 20C586.64 18.8954 585.745 18 584.64 18Z" fill="#4A5166"/>
<path d="M594 19.84C594 18.8238 593.176 18 592.16 18C591.144 18 590.32 18.8238 590.32 19.84V20.16C590.32 21.1762 591.144 22 592.16 22C593.176 22 594 21.1762 594 20.16V19.84Z" fill="#4A5166"/>
</g>
<mask id="mask2_17_206" style="mask-type:alpha" maskUnits="userSpaceOnUse" x="184" y="440" width="776" height="20">
<path d="M187 440H956.629C957.425 440 958.188 440.316 958.75 440.879C959.313 441.441 959.629 442.204 959.629 443V459.006H184V443C184 442.204 184.316 441.441 184.879 440.879C185.441 440.316 186.204 440 187 440V440Z" fill="white"/>
</mask>
<g mask="url(#mask2_17_206)">
<path d="M187 440H956.629C957.425 440 958.188 440.316 958.75 440.879C959.313 441.441 959.629 442.204 959.629 443V459.006H184V443C184 442.204 184.316 441.441 184.879 440.879C185.441 440.316 186.204 440 187 440V440Z" fill="#242942"/>
<path d="M625.159 393.436H518.47C512.947 393.436 508.47 397.913 508.47 403.436V441.404C508.47 446.927 512.947 451.404 518.47 451.404H625.159C630.682 451.404 635.159 446.927 635.159 441.404V403.436C635.159 397.913 630.682 393.436 625.159 393.436Z" fill="#2E334F"/>
</g>
<path d="M184 458H960C960 459.857 959.263 461.637 957.95 462.95C956.637 464.262 954.857 465 953 465H191C189.143 465 187.363 464.262 186.05 462.95C184.737 461.637 184 459.857 184 458V458Z" fill="#1A1C27"/>
<g filter="url(#filter0_d_17_206)">
<path d="M199 10.21H56C49.3726 10.21 44 15.5825 44 22.21V339.21C44 345.837 49.3726 351.21 56 351.21H199C205.627 351.21 211 345.837 211 339.21V22.21C211 15.5825 205.627 10.21 199 10.21Z" fill="black"/>
</g>
<path d="M199 10.21H56C49.3726 10.21 44 15.5825 44 22.21V339.21C44 345.837 49.3726 351.21 56 351.21H199C205.627 351.21 211 345.837 211 339.21V22.21C211 15.5825 205.627 10.21 199 10.21Z" fill="#242942"/>
<mask id="mask3_17_206" style="mask-type:alpha" maskUnits="userSpaceOnUse" x="50" y="16" width="155" height="330">
<path d="M196 16H59C54.0294 16 50 20.0294 50 25V337C50 341.971 54.0294 346 59 346H196C200.971 346 205 341.971 205 337V25C205 20.0294 200.971 16 196 16Z" fill="white"/>
</mask>
<g mask="url(#mask3_17_206)">
<path d="M196 16H59C54.0294 16 50 20.0294 50 25V337C50 341.971 54.0294 346 59 346H196C200.971 346 205 341.971 205 337V25C205 20.0294 200.971 16 196 16Z" fill="#EBEDF4"/>
<path fill-rule="evenodd" clip-rule="evenodd" d="M50 16H205V93H50V16Z" fill="#353740"/>
<mask id="mask4_17_206" style="mask-type:alpha" maskUnits="userSpaceOnUse" x="58" y="124" width="140" height="184">
<path d="M193 124H63C60.2386 124 58 126.239 58 129V303C58 305.761 60.2386 308 63 308H193C195.761 308 198 305.761 198 303V129C198 126.239 195.761 124 193 124Z" fill="white"/>
</mask>
<g mask="url(#mask4_17_206)">
<path d="M193 124H63C60.2386 124 58 126.239 58 129V303C58 305.761 60.2386 308 63 308H193C195.761 308 198 305.761 198 303V129C198 126.239 195.761 124 193 124Z" fill="white"/>
<path d="M162 156H322C328.627 156 334 161.373 334 168C334 174.627 328.627 180 322 180H162C155.373 180 150 174.627 150 168C150 161.373 155.373 156 162 156Z" fill="#FF5E5E"/>
<path d="M162 252H322C328.627 252 334 257.373 334 264C334 270.627 328.627 276 322 276H162C155.373 276 150 270.627 150 264C150 257.373 155.373 252 162 252Z" fill="#FF5E5E"/>
<path d="M118 168C118 161.373 123.373 156 130 156C136.627 156 142 161.373 142 168C142 174.627 136.627 180 130 180C123.373 180 118 174.627 118 168Z" fill="#BC4747"/>
<path d="M66 188H130C136.627 188 142 193.373 142 200C142 206.627 136.627 212 130 212H66C59.3726 212 54 206.627 54 200C54 193.373 59.3726 188 66 188Z" fill="#FF5E5E"/>
<path d="M162 187.547H252C258.627 187.547 264 192.919 264 199.547C264 206.174 258.627 211.547 252 211.547H162C155.373 211.547 150 206.174 150 199.547C150 192.919 155.373 187.547 162 187.547Z" fill="#BC4747"/>
<path d="M66 220.53H92C98.6274 220.53 104 225.903 104 232.53C104 239.157 98.6274 244.53 92 244.53H66C59.3726 244.53 54 239.157 54 232.53C54 225.903 59.3726 220.53 66 220.53Z" fill="#FF5E5E"/>
</g>
<path d="M193 68H63C60.2386 68 58 70.2386 58 73V110C58 112.761 60.2386 115 63 115H193C195.761 115 198 112.761 198 110V73C198 70.2386 195.761 68 193 68Z" fill="white"/>
<path d="M161.5 37H89.5C88.1193 37 87 38.1193 87 39.5C87 40.8807 88.1193 42 89.5 42H161.5C162.881 42 164 40.8807 164 39.5C164 38.1193 162.881 37 161.5 37Z" fill="#4A4E5D"/>
</g>
<path d="M173.5 86H76.5C75.1193 86 74 87.1193 74 88.5C74 89.8807 75.1193 91 76.5 91H173.5C174.881 91 176 89.8807 176 88.5C176 87.1193 174.881 86 173.5 86Z" fill="#B1B4C7"/>
<path d="M136.5 95H76.5C75.1193 95 74 96.1193 74 97.5C74 98.8807 75.1193 100 76.5 100H136.5C137.881 100 139 98.8807 139 97.5C139 96.1193 137.881 95 136.5 95Z" fill="#D4D7E6"/>
<defs>
<filter id="filter0_d_17_206" x="0" y="0.209961" width="267" height="441" filterUnits="userSpaceOnUse" color-interpolation-filters="sRGB">
<feFlood flood-opacity="0" result="BackgroundImageFix"/>
<feColorMatrix in="SourceAlpha" type="matrix" values="0 0 0 0 0 0 0 0 0 0 0 0 0 0 0 0 0 0 127 0" result="hardAlpha"/>
<feOffset dx="6" dy="40"/>
<feGaussianBlur stdDeviation="25"/>
<feColorMatrix type="matrix" values="0 0 0 0 0.24346 0 0 0 0 0.279313 0 0 0 0 0.375399 0 0 0 0.255293 0"/>
<feBlend mode="normal" in2="BackgroundImageFix" result="effect1_dropShadow_17_206"/>
<feBlend mode="normal" in="SourceGraphic" in2="effect1_dropShadow_17_206" result="shape"/>
</filter>
</defs>
</svg>
